<?xml version="1.0" standalone="no"?>
<!DOCTYPE svg PUBLIC "-//W3C//DTD SVG 20010904//EN"
 "http://www.w3.org/TR/2001/REC-SVG-20010904/DTD/svg10.dtd">
<svg version="1.0" xmlns="http://www.w3.org/2000/svg"
 width="769.000000pt" height="153.000000pt" viewBox="0 0 769.000000 153.000000"
 preserveAspectRatio="xMidYMid meet">
<metadata>
Created by potrace 1.16, written by Peter Selinger 2001-2019
</metadata>
<g transform="translate(0.000000,153.000000) scale(0.100000,-0.100000)"
fill="#000000" stroke="none">
<path d="M6619 762 c-64 -57 -45 -154 36 -188 61 -25 139 17 151 83 20 106
-106 177 -187 105z"/>
<path d="M7122 760 c-35 -35 -44 -72 -29 -119 30 -89 160 -101 203 -19 25 49
18 96 -20 134 -29 29 -41 34 -79 34 -37 0 -51 -6 -75 -30z"/>
<path d="M415 729 c-3 -8 -4 -93 -3 -189 l3 -175 52 -3 c47 -3 54 -1 63 20 18
42 80 276 80 301 0 30 -35 45 -127 54 -49 5 -64 3 -68 -8z"/>
<path d="M637 533 c-20 -76 -37 -141 -37 -145 0 -8 193 -83 239 -93 90 -19
205 10 362 91 130 67 156 106 88 134 -38 16 -68 9 -192 -41 -125 -51 -177 -55
-257 -17 l-55 26 102 -5 c112 -6 133 1 133 43 0 31 -47 61 -109 70 -25 4 -72
19 -105 35 -34 15 -77 31 -96 34 l-35 6 -38 -138z"/>
<path d="M6519 452 c-26 -23 -33 -38 -37 -80 -7 -83 -9 -82 213 -82 223 0 221
-1 212 83 -5 41 -13 58 -37 80 -30 27 -31 27 -175 27 -144 0 -145 0 -176 -28z"/>
<path d="M7019 450 c-28 -27 -30 -34 -27 -92 l3 -63 185 -3 c102 -1 195 0 208
3 19 5 22 12 22 56 0 56 -12 85 -44 111 -18 15 -44 18 -169 18 l-149 0 -29
-30z"/>
</g>
</svg>
